<?xml version="1.0" standalone="no"?>
<!DOCTYPE svg PUBLIC "-//W3C//DTD SVG 20010904//EN" "http://www.w3.org/TR/2001/REC-SVG-20010904/DTD/svg10.dtd">
<!-- Created using Karbon, part of Calligra: http://www.calligra.org/karbon -->
<svg xmlns="http://www.w3.org/2000/svg" xmlns:xlink="http://www.w3.org/1999/xlink" width="25.6pt" height="25.6pt">
<defs/>
<g id="layer2">
  <path id="shape0" transform="translate(5.55112e-16, -0.0625542)" fill="#000000" stroke="#000000" stroke-width="0.08503951740" stroke-linecap="square" stroke-linejoin="miter" stroke-miterlimit="2.00000000000" d="M0 31.909C3.86665 29.3795 9.12542 25.858 12.5818 23.6748C14.5261 22.2619 15.4263 21.1201 15.2826 20.2494C15.0669 18.9434 12.9111 18.1575 11.2643 16.824C8.60295 14.8142 7.84221 14.0168 7.97065 12.3446C8.09908 10.6725 10.7211 9.21759 11.0008 8.98512C11.2805 8.75265 20.9202 2.47192 24.8342 0.0263737C30.6808 -0.04609 27.022 0.0570999 31.9485 0.0263737C30.8869 0.914618 26.2651 5.13976 22.5327 7.76437C20.1044 9.7711 19.2094 10.246 18.7738 11.8177C18.633 13.2254 21.1154 13.8108 23.5826 14.8478C26.7913 15.9726 30.2324 18.0653 30.3675 19.7883C30.5027 21.5114 29.3987 22.7526 27.7985 24.597C26.7316 25.8267 24.3821 28.2859 20.75 31.9748Z"/>
  <path id="shape5" transform="matrix(1 0 0 1 21.6261 18.0925)" fill="#ffd700" fill-rule="evenodd" stroke="#000000" stroke-width="0.00000000000" stroke-linecap="square" stroke-linejoin="miter" stroke-miterlimit="2.00000000000" d="M0 13.9157C0.0778604 11.2088 0.170572 7.93695 0.278138 4.1002C0.439485 -1.65494 9.48216 -1.05455 9.40106 4.04908C9.347 7.4515 9.29138 10.7574 9.23418 13.9668Z"/>
  <path id="shape6" transform="matrix(1 0 0 1 25.3043 20.9509)" fill="#000000" fill-rule="evenodd" stroke="#000000" stroke-width="0.08503951740" stroke-linecap="square" stroke-linejoin="miter" stroke-miterlimit="2.00000000000" d="M0.12496 0L2.3743 0L2.24933 6.92014L0 6.8737C2.92503e-15 5.71776 0.0416536 3.42652 0.12496 0Z"/>
  <path id="shape0" transform="translate(9.74444, 24.5105)" fill="#ffffff" fill-rule="evenodd" stroke="#000000" stroke-width="0.08503951740" stroke-linecap="square" stroke-linejoin="bevel" d="M0 6.81513L8.24989 0L11.0596 0.179345L4.42385 6.75535Z"/>
  <path id="shape1" transform="translate(15.4237, 14.7661)" fill="#ffffff" fill-rule="evenodd" stroke="#000000" stroke-width="0.08503951740" stroke-linecap="square" stroke-linejoin="bevel" d="M0 0.538036C1.7394 1.67009 5.12198 3.20823 5.14124 4.48364L7.2336 4.48364C7.90335 3.56382 3.69313 1.35006 1.49455 0Z"/>
  <path id="shape2" transform="translate(13.32, 8.36945)" fill="#ffffff" fill-rule="evenodd" stroke="#000000" stroke-width="0.08503951740" stroke-linecap="square" stroke-linejoin="bevel" d="M0.207056 4.39673L1.47522 3.97401C0.976831 3.06917 3.39456 1.29561 4.37539 0.418473L3.65801 0C1.30791 1.71447 -0.655326 3.55254 0.207056 4.39673Z"/>
  <path id="shape3" transform="translate(23.4345, 1.19564)" fill="#ffffff" fill-rule="evenodd" stroke="#000000" stroke-width="0.08503951740" stroke-linecap="square" stroke-linejoin="bevel" d="M0 1.85324L1.07607 2.03258L3.64669 0.119564L2.6304 2.77556e-16Z"/>
  <path id="shape4" transform="translate(18.9508, 4.3963)" fill="#ffffff" fill-rule="evenodd" stroke="#000000" stroke-width="0.08503951740" stroke-linecap="square" stroke-linejoin="bevel" d="M0 2.11992L1.07607 2.47861L3.7493 0.253633L2.90385 0Z"/>
  <path id="shape51" transform="matrix(1 0 0 1 22.3453 6.00264)" fill="#ffd700" fill-rule="evenodd" stroke="#000000" stroke-width="0.00000000000" stroke-linecap="square" stroke-linejoin="miter" stroke-miterlimit="2.00000000000" d="M0 8.2505C0.0452986 6.64562 0.0992378 4.70576 0.161818 2.43098C0.255689 -0.981199 5.51665 -0.625238 5.46947 2.40067C5.43802 4.41794 5.40565 6.37801 5.37238 8.28084Z"/>
  <path id="shape61" transform="matrix(1 0 0 1 23.6224 7.90151)" fill="#000000" fill-rule="evenodd" stroke="#000000" stroke-width="0.08503951740" stroke-linecap="square" stroke-linejoin="miter" stroke-miterlimit="2.00000000000" d="M0.0576659 0L1.09567 0L1.03801 3.79898L0 3.77348C0 3.1389 0.019222 1.88107 0.0576659 0Z"/>
  <path id="shape62" transform="translate(25.5433, 7.94341)" fill="#000000" fill-rule="evenodd" stroke="#000000" stroke-width="0.08503951740" stroke-linecap="square" stroke-linejoin="miter" stroke-miterlimit="2.00000000000" d="M0.0535394 0L1.01727 0L0.96373 3.82111L0 3.79546C0 3.15719 0.0178465 1.89202 0.0535394 0Z"/>
  <path id="shape52" transform="translate(27.2857, 0.0845443)" fill="#ffd700" fill-rule="evenodd" stroke="#000000" stroke-width="0.00000000000" stroke-linecap="square" stroke-linejoin="miter" stroke-miterlimit="2.00000000000" d="M0 4.67786C0.0281897 3.76792 0.0617565 2.66806 0.100701 1.37831C0.159117 -0.556319 3.43306 -0.354497 3.4037 1.36113C3.38412 2.50488 3.36398 3.6162 3.34327 4.69505Z"/>
  <path id="shape63" transform="translate(28.0003, 1.22348)" fill="#000000" fill-rule="evenodd" stroke="#000000" stroke-width="0.08503951740" stroke-linecap="square" stroke-linejoin="miter" stroke-miterlimit="2.00000000000" d="M0.0229933 0L0.436882 0L0.413889 2.30137L0 2.28593C0 1.9015 0.00766446 1.13953 0.0229933 0Z"/>
  <path id="shape64" transform="translate(28.8027, 1.21811)" fill="#000000" fill-rule="evenodd" stroke="#000000" stroke-width="0.08503951740" stroke-linecap="square" stroke-linejoin="miter" stroke-miterlimit="2.00000000000" d="M0.0205816 0L0.391058 0L0.370477 2.27624L0 2.26096C0 1.88075 0.00686055 1.12708 0.0205816 0Z"/>
  <path id="shape65" transform="translate(29.616, 1.20547)" fill="#000000" fill-rule="evenodd" stroke="#000000" stroke-width="0.08503951740" stroke-linecap="square" stroke-linejoin="miter" stroke-miterlimit="2.00000000000" d="M0.0255672 0L0.485787 0L0.460221 2.34988L0 2.33411C0 1.9416 0.00852244 1.16355 0.0255672 0Z"/>
 </g>
</svg>
